<?xml version="1.0" encoding="UTF-8" standalone="no"?>
<!DOCTYPE svg PUBLIC "-//W3C//DTD SVG 1.1//EN" "http://www.w3.org/Graphics/SVG/1.1/DTD/svg11.dtd">
<svg width="100%" height="100%" viewBox="0 0 51 51" version="1.1" xmlns="http://www.w3.org/2000/svg" xmlns:xlink="http://www.w3.org/1999/xlink" xml:space="preserve" xmlns:serif="http://www.serif.com/" style="fill-rule:evenodd;clip-rule:evenodd;stroke-linejoin:round;stroke-miterlimit:1.41421;">
    <path d="M51,25.5C51,11.44 39.56,0 25.5,0C11.44,0 0,11.44 0,25.5C0,32.927 3.194,39.621 8.277,44.285L8.253,44.306L9.08,45.003C9.134,45.049 9.192,45.086 9.246,45.13C9.685,45.495 10.141,45.841 10.604,46.175C10.755,46.284 10.905,46.392 11.058,46.498C11.553,46.839 12.061,47.163 12.58,47.47C12.693,47.537 12.807,47.602 12.922,47.666C13.49,47.99 14.07,48.295 14.665,48.575C14.708,48.596 14.753,48.614 14.796,48.635C16.734,49.535 18.801,50.196 20.964,50.586C21.02,50.597 21.077,50.607 21.134,50.617C21.806,50.733 22.485,50.826 23.172,50.888C23.255,50.895 23.339,50.9 23.423,50.907C24.107,50.964 24.799,51 25.5,51C26.195,51 26.88,50.964 27.56,50.909C27.647,50.902 27.733,50.897 27.819,50.89C28.501,50.828 29.174,50.738 29.839,50.624C29.896,50.613 29.955,50.603 30.012,50.592C32.142,50.21 34.18,49.564 36.092,48.686C36.163,48.654 36.234,48.623 36.305,48.59C36.877,48.321 37.436,48.031 37.984,47.722C38.12,47.645 38.256,47.567 38.391,47.487C38.89,47.194 39.38,46.887 39.857,46.56C40.029,46.443 40.196,46.32 40.366,46.198C40.773,45.905 41.173,45.602 41.561,45.286C41.648,45.217 41.74,45.156 41.825,45.085L42.673,44.376L42.648,44.355C47.776,39.689 51,32.965 51,25.5ZM1.855,25.5C1.855,12.462 12.462,1.855 25.5,1.855C38.538,1.855 49.145,12.462 49.145,25.5C49.145,32.526 46.062,38.843 41.181,43.177C40.908,42.988 40.634,42.82 40.353,42.679L32.502,38.754C31.797,38.401 31.359,37.693 31.359,36.905L31.359,34.164C31.541,33.939 31.733,33.685 31.932,33.406C32.948,31.971 33.763,30.374 34.357,28.656C35.532,28.097 36.291,26.927 36.291,25.606L36.291,22.319C36.291,21.515 35.996,20.735 35.468,20.122L35.468,15.794C35.516,15.312 35.687,12.597 33.722,10.357C32.013,8.406 29.247,7.418 25.5,7.418C21.753,7.418 18.987,8.406 17.278,10.356C15.313,12.596 15.484,15.313 15.532,15.793L15.532,20.121C15.005,20.734 14.709,21.514 14.709,22.318L14.709,25.605C14.709,26.626 15.167,27.578 15.952,28.221C16.703,31.163 18.249,33.39 18.82,34.145L18.82,36.828C18.82,37.585 18.407,38.281 17.742,38.644L10.41,42.643C10.177,42.77 9.945,42.919 9.713,43.085C4.892,38.753 1.855,32.475 1.855,25.5Z" style="fill:white;fill-rule:nonzero;"/>
</svg>
